<svg width="540" height="110" viewBox="0 0 540 110" fill="none" xmlns="http://www.w3.org/2000/svg">
<path fill-rule="evenodd" clip-rule="evenodd" d="M323.453 35.3709L342.52 16.3223H311.37V0H343.515L343.541 108.531H323.453V35.3709ZM20.0534 65.2455V83.8544C20.0534 89.9225 22.7772 92.2266 28.7836 92.2266H40.8226C46.8377 92.2266 49.4131 89.9225 49.4131 83.8544V60.048C49.4131 53.9887 46.8377 51.6758 40.8226 51.6758H20.0097V33.9464H42.5424C60.4482 33.9464 69.4752 41.7382 69.4752 59.3445V84.4524C69.4752 102.208 60.4482 110 42.5424 110H26.9328C9.02707 110 0 102.208 0 84.4524V65.2455H20.0534ZM100.56 65.2454H80.4795V108.54H100.56V65.2454ZM158.444 51.6757C163.892 51.6757 166.18 53.6984 166.18 59.1861V108.558H186.251V56.4598C186.251 40.8762 178.368 33.9463 162.469 33.9463H161.596C151.119 33.9463 144.519 37.4113 141.516 45.0624C138.215 37.4113 130.943 33.9463 119.593 33.9463H100.543V51.6757H115.585C121.025 51.6757 123.321 53.6984 123.321 59.1861V108.54H143.401V59.1861C143.401 53.6984 145.698 51.6757 151.137 51.6757H158.444ZM198.238 35.3354H215.995L216.868 43.5932C220.299 36.9535 227.039 33.9194 236.948 33.9194H239.96C256.713 33.9194 265.173 41.1308 265.173 57.7346V108.531H245.093V59.6166C245.093 53.8387 242.658 51.7017 236.791 51.7017H226.463C220.736 51.7017 218.3 53.8651 218.3 59.6166V108.54H198.221L198.238 35.3354ZM358.786 88.8671C358.786 103.914 366.093 109.974 381.136 109.974H387.709L403.162 94.5307H385.571C380.708 94.5307 378.84 92.6575 378.84 87.891V86.3079C378.84 81.5678 380.708 79.809 385.571 79.809H405.458V108.531H425.538V59.2829C425.538 41.5359 416.511 33.8848 398.605 33.8848H386.566C368.948 33.8848 359.781 41.0962 359.633 58.852V59.2829H379.713V57.8406C379.713 51.7813 382.428 49.3277 388.591 49.3277H396.754C402.865 49.3277 405.484 51.7813 405.484 57.8406V65.6324H381.136C366.093 65.6324 358.786 71.8413 358.786 86.8444V88.8671ZM432.001 35.3711H452.204L464.384 82.7024L478.422 35.3711H495.011L508.91 77.3642L519.657 35.3711H540L527.532 80.108H509.792L519.256 108.54H501.489L486.874 61.7806L472.975 108.54H452.021L432.001 35.3711ZM280.202 92.2178L299.277 73.1604V35.371H279.189L279.215 108.531H311.36V92.2178H280.202Z" fill="white"/>
</svg>
